<svg xmlns="http://www.w3.org/2000/svg" width="1800" height="1000" viewBox="0 0 1800 1000">
  <defs><marker id="arrow" markerWidth="9" markerHeight="9" refX="8" refY="4.5" orient="auto"><path d="M0,0 L9,4.5 L0,9 Z" fill="#52606D"/></marker></defs>
  <rect width="1800" height="1000" fill="#FFFFFF"/>
  <g transform="translate(0 -90)"><rect x="80" y="185" width="300" height="66" rx="8" fill="#E6F4FA" stroke="#CBD5E1" stroke-width="1.5"/><text x="230" y="226" text-anchor="middle" font-family="Arial, Helvetica, sans-serif" font-size="22" font-weight="700" fill="#1F2933"><tspan x="230" dy="0">Common proxy</tspan></text><rect x="430" y="185" width="470" height="66" rx="8" fill="#FFF3E0" stroke="#CBD5E1" stroke-width="1.5"/><text x="665" y="226" text-anchor="middle" font-family="Arial, Helvetica, sans-serif" font-size="22" font-weight="700" fill="#1F2933"><tspan x="665" dy="0">Counterexample mechanism</tspan></text><rect x="955" y="185" width="305" height="66" rx="8" fill="#EAF7F2" stroke="#CBD5E1" stroke-width="1.5"/><text x="1107.5" y="226" text-anchor="middle" font-family="Arial, Helvetica, sans-serif" font-size="22" font-weight="700" fill="#1F2933"><tspan x="1107.5" dy="0">Missing contract</tspan></text><rect x="1310" y="185" width="410" height="66" rx="8" fill="#FBF0F7" stroke="#CBD5E1" stroke-width="1.5"/><text x="1515" y="226" text-anchor="middle" font-family="Arial, Helvetica, sans-serif" font-size="22" font-weight="700" fill="#1F2933"><tspan x="1515" dy="0">Strongest defensible claim</tspan></text><rect x="80" y="275" width="300" height="82" rx="5" fill="#FFFFFF" stroke="#CBD5E1" stroke-width="1.2"/><text x="98" y="305" text-anchor="start" font-family="Arial, Helvetica, sans-serif" font-size="19" font-weight="700" fill="#1F2933"><tspan x="98" dy="0">Visual realism</tspan></text><rect x="430" y="275" width="470" height="82" rx="5" fill="#FFFFFF" stroke="#CBD5E1" stroke-width="1.2"/><text x="448" y="305" text-anchor="start" font-family="Arial, Helvetica, sans-serif" font-size="19" font-weight="400" fill="#1F2933"><tspan x="448" dy="0">Unseen action has opposite consequence</tspan></text><rect x="955" y="275" width="305" height="82" rx="5" fill="#FFFFFF" stroke="#CBD5E1" stroke-width="1.2"/><text x="973" y="305" text-anchor="start" font-family="Arial, Helvetica, sans-serif" font-size="19" font-weight="400" fill="#1F2933"><tspan x="973" dy="0">K2 intervention</tspan></text><rect x="1310" y="275" width="410" height="82" rx="5" fill="#FFFFFF" stroke="#CBD5E1" stroke-width="1.2"/><text x="1328" y="305" text-anchor="start" font-family="Arial, Helvetica, sans-serif" font-size="19" font-weight="400" fill="#1F2933"><tspan x="1328" dy="0">C0 only</tspan></text><line x1="386" y1="316" x2="421" y2="316" stroke="#52606D" stroke-width="4"  marker-end="url(#arrow)"/><line x1="906" y1="316" x2="946" y2="316" stroke="#52606D" stroke-width="4"  marker-end="url(#arrow)"/><line x1="1266" y1="316" x2="1301" y2="316" stroke="#52606D" stroke-width="4"  marker-end="url(#arrow)"/><rect x="80" y="380" width="300" height="82" rx="5" fill="#F5F7FA" stroke="#CBD5E1" stroke-width="1.2"/><text x="98" y="410" text-anchor="start" font-family="Arial, Helvetica, sans-serif" font-size="19" font-weight="700" fill="#1F2933"><tspan x="98" dy="0">Action replay</tspan></text><rect x="430" y="380" width="470" height="82" rx="5" fill="#F5F7FA" stroke="#CBD5E1" stroke-width="1.2"/><text x="448" y="410" text-anchor="start" font-family="Arial, Helvetica, sans-serif" font-size="19" font-weight="400" fill="#1F2933"><tspan x="448" dy="0">Closed-loop state drift changes later</tspan><tspan x="448" dy="23">actions</tspan></text><rect x="955" y="380" width="305" height="82" rx="5" fill="#F5F7FA" stroke="#CBD5E1" stroke-width="1.2"/><text x="973" y="410" text-anchor="start" font-family="Arial, Helvetica, sans-serif" font-size="19" font-weight="400" fill="#1F2933"><tspan x="973" dy="0">K4 support</tspan></text><rect x="1310" y="380" width="410" height="82" rx="5" fill="#F5F7FA" stroke="#CBD5E1" stroke-width="1.2"/><text x="1328" y="410" text-anchor="start" font-family="Arial, Helvetica, sans-serif" font-size="19" font-weight="400" fill="#1F2933"><tspan x="1328" dy="0">Bounded intervention test</tspan></text><line x1="386" y1="421" x2="421" y2="421" stroke="#52606D" stroke-width="4"  marker-end="url(#arrow)"/><line x1="906" y1="421" x2="946" y2="421" stroke="#52606D" stroke-width="4"  marker-end="url(#arrow)"/><line x1="1266" y1="421" x2="1301" y2="421" stroke="#52606D" stroke-width="4"  marker-end="url(#arrow)"/><rect x="80" y="485" width="300" height="82" rx="5" fill="#FFFFFF" stroke="#CBD5E1" stroke-width="1.2"/><text x="98" y="515" text-anchor="start" font-family="Arial, Helvetica, sans-serif" font-size="19" font-weight="700" fill="#1F2933"><tspan x="98" dy="0">High correlation</tspan></text><rect x="430" y="485" width="470" height="82" rx="5" fill="#FFFFFF" stroke="#CBD5E1" stroke-width="1.2"/><text x="448" y="515" text-anchor="start" font-family="Arial, Helvetica, sans-serif" font-size="19" font-weight="400" fill="#1F2933"><tspan x="448" dy="0">One consequential top-pair reversal</tspan></text><rect x="955" y="485" width="305" height="82" rx="5" fill="#FFFFFF" stroke="#CBD5E1" stroke-width="1.2"/><text x="973" y="515" text-anchor="start" font-family="Arial, Helvetica, sans-serif" font-size="19" font-weight="400" fill="#1F2933"><tspan x="973" dy="0">K5 decision</tspan></text><rect x="1310" y="485" width="410" height="82" rx="5" fill="#FFFFFF" stroke="#CBD5E1" stroke-width="1.2"/><text x="1328" y="515" text-anchor="start" font-family="Arial, Helvetica, sans-serif" font-size="19" font-weight="400" fill="#1F2933"><tspan x="1328" dy="0">Aggregate association</tspan></text><line x1="386" y1="526" x2="421" y2="526" stroke="#52606D" stroke-width="4"  marker-end="url(#arrow)"/><line x1="906" y1="526" x2="946" y2="526" stroke="#52606D" stroke-width="4"  marker-end="url(#arrow)"/><line x1="1266" y1="526" x2="1301" y2="526" stroke="#52606D" stroke-width="4"  marker-end="url(#arrow)"/><rect x="80" y="590" width="300" height="82" rx="5" fill="#F5F7FA" stroke="#CBD5E1" stroke-width="1.2"/><text x="98" y="620" text-anchor="start" font-family="Arial, Helvetica, sans-serif" font-size="19" font-weight="700" fill="#1F2933"><tspan x="98" dy="0">Perfect finite ranking</tspan></text><rect x="430" y="590" width="470" height="82" rx="5" fill="#F5F7FA" stroke="#CBD5E1" stroke-width="1.2"/><text x="448" y="620" text-anchor="start" font-family="Arial, Helvetica, sans-serif" font-size="19" font-weight="400" fill="#1F2933"><tspan x="448" dy="0">New selected policy lies outside tested</tspan><tspan x="448" dy="23">set</tspan></text><rect x="955" y="590" width="305" height="82" rx="5" fill="#F5F7FA" stroke="#CBD5E1" stroke-width="1.2"/><text x="973" y="620" text-anchor="start" font-family="Arial, Helvetica, sans-serif" font-size="19" font-weight="400" fill="#1F2933"><tspan x="973" dy="0">K4 + K6</tspan></text><rect x="1310" y="590" width="410" height="82" rx="5" fill="#F5F7FA" stroke="#CBD5E1" stroke-width="1.2"/><text x="1328" y="620" text-anchor="start" font-family="Arial, Helvetica, sans-serif" font-size="19" font-weight="400" fill="#1F2933"><tspan x="1328" dy="0">Fixed-set C2</tspan></text><line x1="386" y1="631" x2="421" y2="631" stroke="#52606D" stroke-width="4"  marker-end="url(#arrow)"/><line x1="906" y1="631" x2="946" y2="631" stroke="#52606D" stroke-width="4"  marker-end="url(#arrow)"/><line x1="1266" y1="631" x2="1301" y2="631" stroke="#52606D" stroke-width="4"  marker-end="url(#arrow)"/><rect x="80" y="695" width="300" height="82" rx="5" fill="#FFFFFF" stroke="#CBD5E1" stroke-width="1.2"/><text x="98" y="725" text-anchor="start" font-family="Arial, Helvetica, sans-serif" font-size="19" font-weight="700" fill="#1F2933"><tspan x="98" dy="0">Pointwise interval</tspan></text><rect x="430" y="695" width="470" height="82" rx="5" fill="#FFFFFF" stroke="#CBD5E1" stroke-width="1.2"/><text x="448" y="725" text-anchor="start" font-family="Arial, Helvetica, sans-serif" font-size="19" font-weight="400" fill="#1F2933"><tspan x="448" dy="0">Winner selected from many noisy candidates</tspan></text><rect x="955" y="695" width="305" height="82" rx="5" fill="#FFFFFF" stroke="#CBD5E1" stroke-width="1.2"/><text x="973" y="725" text-anchor="start" font-family="Arial, Helvetica, sans-serif" font-size="19" font-weight="400" fill="#1F2933"><tspan x="973" dy="0">K6 selection uncertainty</tspan></text><rect x="1310" y="695" width="410" height="82" rx="5" fill="#FFFFFF" stroke="#CBD5E1" stroke-width="1.2"/><text x="1328" y="725" text-anchor="start" font-family="Arial, Helvetica, sans-serif" font-size="19" font-weight="400" fill="#1F2933"><tspan x="1328" dy="0">Fixed-policy C1</tspan></text><line x1="386" y1="736" x2="421" y2="736" stroke="#52606D" stroke-width="4"  marker-end="url(#arrow)"/><line x1="906" y1="736" x2="946" y2="736" stroke="#52606D" stroke-width="4"  marker-end="url(#arrow)"/><line x1="1266" y1="736" x2="1301" y2="736" stroke="#52606D" stroke-width="4"  marker-end="url(#arrow)"/><rect x="80" y="800" width="300" height="82" rx="5" fill="#F5F7FA" stroke="#CBD5E1" stroke-width="1.2"/><text x="98" y="830" text-anchor="start" font-family="Arial, Helvetica, sans-serif" font-size="19" font-weight="700" fill="#1F2933"><tspan x="98" dy="0">Calibration fit</tspan></text><rect x="430" y="800" width="470" height="82" rx="5" fill="#F5F7FA" stroke="#CBD5E1" stroke-width="1.2"/><text x="448" y="830" text-anchor="start" font-family="Arial, Helvetica, sans-serif" font-size="19" font-weight="400" fill="#1F2933"><tspan x="448" dy="0">Equivalent fits disagree on target</tspan><tspan x="448" dy="23">quantity</tspan></text><rect x="955" y="800" width="305" height="82" rx="5" fill="#F5F7FA" stroke="#CBD5E1" stroke-width="1.2"/><text x="973" y="830" text-anchor="start" font-family="Arial, Helvetica, sans-serif" font-size="19" font-weight="400" fill="#1F2933"><tspan x="973" dy="0">K7 transport</tspan></text><rect x="1310" y="800" width="410" height="82" rx="5" fill="#F5F7FA" stroke="#CBD5E1" stroke-width="1.2"/><text x="1328" y="830" text-anchor="start" font-family="Arial, Helvetica, sans-serif" font-size="19" font-weight="400" fill="#1F2933"><tspan x="1328" dy="0">Measured quantities only</tspan></text><line x1="386" y1="841" x2="421" y2="841" stroke="#52606D" stroke-width="4"  marker-end="url(#arrow)"/><line x1="906" y1="841" x2="946" y2="841" stroke="#52606D" stroke-width="4"  marker-end="url(#arrow)"/><line x1="1266" y1="841" x2="1301" y2="841" stroke="#52606D" stroke-width="4"  marker-end="url(#arrow)"/><rect x="80" y="905" width="300" height="82" rx="5" fill="#FFFFFF" stroke="#CBD5E1" stroke-width="1.2"/><text x="98" y="935" text-anchor="start" font-family="Arial, Helvetica, sans-serif" font-size="19" font-weight="700" fill="#1F2933"><tspan x="98" dy="0">Numerical convergence</tspan></text><rect x="430" y="905" width="470" height="82" rx="5" fill="#FFFFFF" stroke="#CBD5E1" stroke-width="1.2"/><text x="448" y="935" text-anchor="start" font-family="Arial, Helvetica, sans-serif" font-size="19" font-weight="400" fill="#1F2933"><tspan x="448" dy="0">Omitted target mechanism reverses order</tspan></text><rect x="955" y="905" width="305" height="82" rx="5" fill="#FFFFFF" stroke="#CBD5E1" stroke-width="1.2"/><text x="973" y="935" text-anchor="start" font-family="Arial, Helvetica, sans-serif" font-size="19" font-weight="400" fill="#1F2933"><tspan x="973" dy="0">K7 transport</tspan></text><rect x="1310" y="905" width="410" height="82" rx="5" fill="#FFFFFF" stroke="#CBD5E1" stroke-width="1.2"/><text x="1328" y="935" text-anchor="start" font-family="Arial, Helvetica, sans-serif" font-size="19" font-weight="400" fill="#1F2933"><tspan x="1328" dy="0">Stable synthetic result</tspan></text><line x1="386" y1="946" x2="421" y2="946" stroke="#52606D" stroke-width="4"  marker-end="url(#arrow)"/><line x1="906" y1="946" x2="946" y2="946" stroke="#52606D" stroke-width="4"  marker-end="url(#arrow)"/><line x1="1266" y1="946" x2="1301" y2="946" stroke="#52606D" stroke-width="4"  marker-end="url(#arrow)"/><text x="90" y="1045" text-anchor="start" font-family="Arial, Helvetica, sans-serif" font-size="22" font-weight="400" fill="#52606D"><tspan x="90" dy="0">A proxy remains useful as a diagnostic; the map limits the stronger claim that cannot be inferred without an additional witness.</tspan></text></g>
  </svg>